<svg xmlns="http://www.w3.org/2000/svg" width="448" height="448" viewBox="0 0 448 448">
  <path id="line-brands" d="M272.1,204.2v71.1a3.159,3.159,0,0,1-3.2,3.2H257.5a3.307,3.307,0,0,1-2.6-1.3l-32.6-44v42.2a3.159,3.159,0,0,1-3.2,3.2H207.7a3.159,3.159,0,0,1-3.2-3.2V204.3a3.159,3.159,0,0,1,3.2-3.2H219a3.016,3.016,0,0,1,2.6,1.4l32.6,44V204.3a3.159,3.159,0,0,1,3.2-3.2h11.4a3.162,3.162,0,0,1,3.3,3.1Zm-82-3.2H178.7a3.159,3.159,0,0,0-3.2,3.2v71.1a3.159,3.159,0,0,0,3.2,3.2h11.4a3.159,3.159,0,0,0,3.2-3.2V204.2a3.222,3.222,0,0,0-3.2-3.2Zm-27.5,59.6H131.5V204.2a3.159,3.159,0,0,0-3.2-3.2H116.9a3.159,3.159,0,0,0-3.2,3.2v71.1a2.94,2.94,0,0,0,.9,2.2,3.373,3.373,0,0,0,2.2.9h45.7a3.159,3.159,0,0,0,3.2-3.2V263.8a3.2,3.2,0,0,0-3.1-3.2ZM332.1,201H286.4a3.222,3.222,0,0,0-3.2,3.2v71.1a3.222,3.222,0,0,0,3.2,3.2h45.7a3.159,3.159,0,0,0,3.2-3.2V263.9a3.159,3.159,0,0,0-3.2-3.2H301v-12h31.1a3.159,3.159,0,0,0,3.2-3.2V234a3.159,3.159,0,0,0-3.2-3.2H301v-12h31.1a3.159,3.159,0,0,0,3.2-3.2V204.2a3.363,3.363,0,0,0-3.2-3.2ZM448,113.7V399c-.1,44.8-36.8,81.1-81.7,81H81c-44.8-.1-81.1-36.9-81-81.7V113C.1,68.2,36.9,31.9,81.7,32H367C411.8,32.1,448.1,68.8,448,113.7ZM386.4,236.3c0-73-73.2-132.4-163.1-132.4S60.2,163.3,60.2,236.3c0,65.4,58,120.2,136.4,130.6,19.1,4.1,16.9,11.1,12.6,36.8-.7,4.1-3.3,16.1,14.1,8.8s93.9-55.3,128.2-94.7C375.1,291.8,386.4,265.5,386.4,236.3Z" transform="translate(0 -32)" fill="#fff"/>
</svg>
