<svg xmlns="http://www.w3.org/2000/svg" width="77.971" height="73.386" viewBox="0 0 77.971 73.386">
  <path id="Icon_awesome-hand-holding-usd" data-name="Icon awesome-hand-holding-usd" d="M36.922,20.683l7.167,2.05a1.206,1.206,0,0,1-.33,2.365h-4.7a3.687,3.687,0,0,1-1.476-.315,1.777,1.777,0,0,0-2.021.287l-2.508,2.508a1.719,1.719,0,0,0,.215,2.637,10.473,10.473,0,0,0,4.558,1.648V34.4a2.3,2.3,0,0,0,2.293,2.293h2.293A2.3,2.3,0,0,0,44.705,34.4V31.877a8.064,8.064,0,0,0,7.066-9.03,8.41,8.41,0,0,0-6.149-6.837l-7.167-2.05a1.206,1.206,0,0,1,.33-2.365h4.7a3.687,3.687,0,0,1,1.476.315,1.777,1.777,0,0,0,2.021-.287l2.508-2.508a1.719,1.719,0,0,0-.215-2.637A10.473,10.473,0,0,0,44.719,4.83V2.293A2.3,2.3,0,0,0,42.426,0H40.133A2.3,2.3,0,0,0,37.84,2.293V4.816a8.064,8.064,0,0,0-7.066,9.03A8.41,8.41,0,0,0,36.922,20.683Zm39.6,26.344a4.3,4.3,0,0,0-5.776,0L58.25,57.619a8.336,8.336,0,0,1-5.418,2.007H36.822a2.3,2.3,0,0,1,0-4.587H47.414a4.59,4.59,0,0,0,.229-9.173H25.986a15.325,15.325,0,0,0-10.019,3.77l-6.292,5.4H2.164A2.239,2.239,0,0,0,0,57.333v13.76a2.239,2.239,0,0,0,2.164,2.293H50.453a8.393,8.393,0,0,0,5.418-2.007L76.338,54.036a4.762,4.762,0,0,0,.186-7.009Z"/>
</svg>
