<svg xmlns="http://www.w3.org/2000/svg" width="70.792" height="71.759" viewBox="0 0 70.792 71.759">
  <path id="Icon_simple-paypal" data-name="Icon simple-paypal" d="M20.416,71.759H11.135a2.753,2.753,0,0,1-2.8-3.528l.446-2.015h6.192a4.773,4.773,0,0,0,4.431-3.534l3.181-13.73a4.781,4.781,0,0,1,4.425-3.528h2.64q16.993,0,26.431-7c6.3-4.667,9.448-10.764,9.448-18.343a17.56,17.56,0,0,0-1.758-8.339c0-.048-.048-.093-.048-.138l.4.224a13.824,13.824,0,0,1,5.116,5.424A17.433,17.433,0,0,1,71.032,25.6c0,7.58-3.136,13.676-9.46,18.343-6.279,4.619-15.114,6.949-26.413,6.949H32.468a4.777,4.777,0,0,0-4.437,3.546L24.847,68.207a4.736,4.736,0,0,1-4.4,3.5Zm-8-8.058H3.128a2.757,2.757,0,0,1-2.8-3.528L13.4,3.534A4.769,4.769,0,0,1,17.832,0h19.33A60.905,60.905,0,0,1,48.07.864a22.924,22.924,0,0,1,8.025,2.96A13.782,13.782,0,0,1,61.169,9.26a18,18,0,0,1,1.746,8.363q0,11.369-9.46,18.3c-6.279,4.667-15.117,6.955-26.419,6.955H24.4a4.765,4.765,0,0,0-4.419,3.5L16.8,60.089a4.769,4.769,0,0,1-4.44,3.5ZM34.675,11.768H31.643a4.76,4.76,0,0,0-4.425,3.522L24.437,27.31a2.748,2.748,0,0,0,2.781,3.525h2.29c4.975,0,8.88-1.026,11.661-3.053a10.18,10.18,0,0,0,4.171-8.707,6.132,6.132,0,0,0-2.691-5.5c-1.794-1.208-4.485-1.809-8.031-1.809l.057,0Z" transform="translate(-0.241)"/>
</svg>
